<svg width="238" height="343" viewBox="0 0 238 343" fill="none" xmlns="http://www.w3.org/2000/svg">
<path d="M0 31.1303H237.722V342.648H0V31.1303Z" fill="#FFC333"/>
<path d="M0 31.1303L32.0737 0H223.572L237.722 31.1303H0Z" fill="url(#paint0_linear_2017_249)"/>
<path d="M0 31.1303H237.722V342.648H0V31.1303Z" fill="url(#paint1_linear_2017_249)"/>
<path d="M99.6504 100.936C100.179 100.936 100.82 101.002 101.465 101.255L101.466 101.253C101.857 101.4 102.226 101.584 102.577 101.794L118.195 110.471C118.997 110.901 119.767 111.651 120.08 112.77C120.277 113.372 120.336 113.971 120.336 114.497V132.354C120.336 133.033 120.199 133.802 119.78 134.534C119.468 135.081 119.056 135.523 118.672 135.872L107.647 146.284H117.369C118.186 146.284 119.318 146.49 120.227 147.398C121.135 148.307 121.341 149.439 121.341 150.256V163.499C121.341 164.316 121.135 165.448 120.227 166.356C119.318 167.265 118.186 167.471 117.369 167.471H86.0869C85.2701 167.471 84.1377 167.265 83.2295 166.356C82.3234 165.45 82.1162 164.321 82.1152 163.505L82.0693 142.179V142.172C82.0694 141.552 82.1727 140.658 82.7275 139.826L82.8115 139.7L82.9082 139.584C83.1619 139.28 83.4488 138.998 83.7422 138.736L95.7695 127.473V125.754L84.4473 120.788L84.4482 120.787C82.49 119.954 82.0693 118.041 82.0693 116.826V104.907C82.0694 104.09 82.2754 102.958 83.1836 102.05C84.0918 101.142 85.2242 100.936 86.041 100.936H99.6504Z" fill="#FDB300" stroke="black" stroke-width="5.66006"/>
<defs>
<linearGradient id="paint0_linear_2017_249" x1="118.861" y1="-0.959798" x2="118.861" y2="27.8341" gradientUnits="userSpaceOnUse">
<stop stop-color="#FFC333"/>
<stop offset="1" stop-color="#FFE199"/>
</linearGradient>
<linearGradient id="paint1_linear_2017_249" x1="0" y1="183.952" x2="237.722" y2="183.952" gradientUnits="userSpaceOnUse">
<stop stop-color="#FFF0CC"/>
<stop offset="0.0625" stop-color="#FFC333" stop-opacity="0"/>
<stop offset="0.94" stop-color="#FFC333" stop-opacity="0"/>
<stop offset="1" stop-color="#FFE199"/>
</linearGradient>
</defs>
</svg>
