<svg width="277" height="71" viewBox="0 0 277 71" fill="none" xmlns="http://www.w3.org/2000/svg">
<mask id="mask0_317_36" style="mask-type:luminance" maskUnits="userSpaceOnUse" x="0" y="0" width="277" height="71">
<path d="M276.962 0H0V70.0615H276.962V0Z" fill="white"/>
</mask>
<g mask="url(#mask0_317_36)">
<path d="M1.00597 2.03203C5.71401 1.94259 11.8836 2.34765 16.2098 2.07177C30.8474 1.13831 42.5675 6.44638 44.854 22.1727C45.1587 24.2685 45.2771 28.7688 44.9822 30.9542C44.2647 36.2719 42.2963 41.657 38.4452 45.4984C37.653 46.2571 36.7944 46.9434 35.8795 47.5488C32.9842 49.4962 30.772 50.3538 27.4 51.306C26.9201 51.4415 24.3002 51.5932 23.6344 51.6322C18.4534 51.9367 13.1622 51.758 7.96485 51.8051C6.61684 51.8174 1.92962 51.924 0.885031 51.7206C0.872198 51.6901 0.859893 51.6596 0.849162 51.6285C0.359886 50.2079 0.654126 30.6761 0.654183 27.5776L0.655977 11.7079C0.656277 9.98055 0.438819 3.15656 1.00597 2.03203ZM16.8656 14.6486L17.0395 39.4282C17.0395 39.4282 16.9862 40.6755 17.4214 41.0881C17.9418 41.2201 18.2439 41.0595 18.6193 40.7018C20.3215 39.0801 21.8958 37.3279 23.5561 35.6662L28.9197 30.2949C29.6173 29.5952 31.3834 27.9274 31.8072 27.2191C31.0461 25.7384 20.0463 15.4025 18.382 13.5694C18.2301 13.4022 17.9392 13.2438 17.7142 13.1684C16.8038 13.2493 16.8656 14.6486 16.8656 14.6486ZM14.2059 41.6627C14.6626 41.5575 14.7241 41.6251 14.9838 41.312C15.1876 35.0302 14.8717 28.3007 15.01 21.9789C15.031 21.0213 15.0576 13.672 14.9309 13.0698C14.5286 12.9066 14.0665 12.9726 13.6258 12.9956C13.3959 13.2065 12.9868 13.5483 13.0002 13.876C13.1446 17.4052 13.1213 20.9239 13.1213 24.4555L13.1165 35.1754C13.1154 36.2234 12.9215 40.6725 13.3731 41.3244C13.7019 41.565 13.8047 41.581 14.2059 41.6627Z" fill="#F8B312"/>
<path d="M156.776 3.62668C158.084 3.59724 163.965 3.45247 164.874 3.80453C165.109 4.62124 165.042 8.87917 165.042 10.0536L165.04 21.4486L165.044 40.8656C165.044 43.984 165.17 48.3484 164.985 51.3635C163.922 51.4648 157.22 51.5424 156.512 51.1591C155.878 49.6256 156.211 32.7903 156.213 29.6881C156.212 28.2717 156.335 20.8622 156.167 20.1085L155.981 20.0726C155.26 20.5161 144.915 34.6441 144.127 36.2969C142.455 34.9813 139.3 30.2779 137.878 28.2981C136.539 26.4512 135.187 24.6136 133.821 22.7855C133.225 21.9724 132.705 21.1671 132.173 20.2993C132.045 20.091 131.831 20.1193 131.634 20.1242C131.244 20.8583 131.421 28.3385 131.421 29.6245L131.417 49.5933C131.412 50.2355 131.486 50.8849 131.035 51.3297C129.828 51.5179 123.298 51.6224 122.59 50.8889C122.43 49.8806 122.517 48.2563 122.522 47.1801L122.535 40.7332L122.536 17.4454L122.526 7.29537C122.523 6.58192 122.405 4.18829 122.517 3.71019C124.205 3.50766 129.117 3.58871 130.919 3.65172C132.907 5.85633 142.614 20.3929 143.968 20.9535C144.387 20.8033 145.032 19.3758 145.428 18.8459L153.015 8.57931C154.201 6.97574 155.425 5.05589 156.776 3.62668Z" fill="#F8B312"/>
<path d="M187.924 20.0725C189.087 19.946 191.779 20.0718 192.959 20.4777C194.299 21.0451 195.482 22.0651 196.718 22.7381C197.232 23.0181 197.333 20.5775 197.344 20.3886C199.494 20.4313 203.147 20.1739 205.28 20.7165C205.503 20.9195 205.583 22.1266 205.581 22.3598C205.492 31.9109 205.89 41.6877 205.535 51.2155C204.17 51.5266 199.066 51.4034 197.402 51.3965C197.313 50.7237 197.331 49.7111 196.738 49.3547C196.388 49.4332 195.332 50.346 194.672 50.7029C193.762 51.365 192.823 51.5062 191.697 51.5955C186.908 52.0338 182.731 51.2688 178.989 48.0829C168.079 38.7967 173.591 21.293 187.924 20.0725ZM189.924 43.7544C194.247 43.4342 197.505 39.69 197.224 35.3636C196.944 31.0374 193.23 27.7451 188.901 27.9857C184.517 28.2294 181.173 32.0027 181.457 36.3856C181.741 40.7685 185.545 44.0786 189.924 43.7544Z" fill="#F8B312"/>
<path d="M221.218 2.09291C221.652 2.02231 221.748 2.00964 222.133 2.22577C222.331 2.43905 222.558 2.76738 222.555 3.0726C222.545 4.62873 222.501 6.1787 222.5 7.73718L222.497 21.206C222.497 23.159 222.378 26.7939 222.666 28.5702C223.528 27.8911 224.806 26.452 225.659 25.6347C227.497 23.8742 229.328 22.0657 231.265 20.4128L238.155 20.4098C239.5 20.4085 241.238 20.3481 242.538 20.5379C240.888 23.2608 232.405 29.4468 231.557 31.6272C231.571 32.3489 233.839 34.7615 234.437 35.5476L243.401 47.2673C244.225 48.3672 245.84 50.3291 246.338 51.4472C245.564 51.4133 244.711 51.4168 243.931 51.4057C241.418 51.3736 238.854 51.4 236.337 51.3996C234.92 50.2843 234.269 49.0159 233.147 47.6875C230.533 44.5927 228.17 41.0893 225.489 38.0549C224.616 37.9782 223.195 39.6738 222.609 40.2827C222.469 41.9091 222.754 50.6721 222.159 51.2965C221.684 51.3972 220.502 51.4345 220.008 51.3794C218.923 51.2589 214.609 51.7761 213.95 51.004C213.681 49.1494 213.795 45.2887 213.793 43.2407L213.792 29.075L213.795 12.1422C213.796 9.3678 213.658 5.04294 213.971 2.47469C214.831 1.88607 219.638 2.24697 221.218 2.09291Z" fill="#F8B312"/>
<path d="M82.3458 20.3768C84.8036 20.2919 88.3951 20.3111 90.7831 20.6396C91.5726 20.7483 93.4431 26.318 93.8309 27.2503L96.4304 33.6605C96.7995 34.5467 97.2233 35.4247 97.6206 36.2979C97.8723 36.8509 97.7559 38.681 98.3056 38.8993C100.105 38.0203 104.25 24.8693 105.741 22.4503C105.978 22.0666 106.388 20.9007 106.552 20.4104C108.769 20.4107 113.398 20.2891 115.353 20.5381C114.772 22.9461 113.046 26.6143 112.049 29.032L107.174 41.1686C106.485 42.861 105.29 45.4629 104.883 47.1206L104.854 47.1671C103.813 48.8577 103.361 50.8894 102.566 52.7209C100.615 57.2139 98.874 61.8066 97.0069 66.3313C96.6748 67.136 96.4283 67.8055 96.1771 68.6427C93.6757 69.7279 90.517 68.8079 87.8412 69.2208C87.6296 69.2535 87.4557 69.2434 87.2493 69.1836C86.9192 68.3494 88.6198 65.1082 89.0275 64.13L92.8372 54.8923C93.0179 54.452 94.274 51.5293 94.1694 51.2176C91.6328 43.6507 87.8942 35.5755 85.1703 28.117C84.287 25.6981 82.3305 21.9872 82.3458 20.3768Z" fill="#F8B312"/>
<path d="M259.461 20.0659C267.558 18.8505 274.488 24.9123 276.179 32.5647C276.393 33.5319 276.559 36.2061 276.237 37.1134C275.688 37.6696 256.441 37.1081 254.13 37.3995C253.535 38.1587 254.902 40.8071 255.457 41.5351C259.124 46.3492 263.295 45.7663 267.359 41.9059C267.74 42.1631 268.293 42.6425 268.667 42.9475C269.769 43.9767 272.265 45.7716 272.629 47.007C272.53 47.7906 271.582 48.1834 270.959 48.6444C261.019 55.9463 248.155 50.193 246.473 38.0188C245.333 29.7818 250.939 20.9997 259.461 20.0659ZM262.424 32.0459C263.545 32.0503 267.283 32.3254 267.897 31.7502C267.986 31.4261 268.017 31.1219 267.801 30.8218C266.082 28.4363 263.545 26.7845 260.55 26.9289C258.164 27.7326 256.278 28.537 255.02 30.9291C254.829 31.2913 254.858 31.6248 255.067 31.9726C255.791 32.2015 261.216 32.0423 262.424 32.0459Z" fill="#F8B312"/>
<path d="M63.9678 20.0685C71.6625 19.1876 78.3016 23.8888 80.3077 31.4172C80.767 33.1406 81.5309 35.313 80.7939 37.0969C79.6778 37.8017 62.156 37.0679 59.6067 37.3334C59.3558 37.3595 59.0037 37.3583 58.6787 37.436C58.3432 38.0503 58.585 38.6135 58.8388 39.2263C61.5084 45.6729 66.867 46.7831 72.01 41.902C72.3906 42.1819 72.893 42.6532 73.2594 42.978C74.1277 43.7777 76.7287 45.7493 77.0653 46.8874C77.3135 47.7265 75.5967 48.5868 74.9686 49.0353C69.9477 52.6209 62.2259 52.96 57.3364 48.9724C53.7889 46.1597 51.7463 42.8041 51.0773 38.2814C49.7861 30.0953 55.3131 21.0111 63.9678 20.0685ZM67.0098 32.0483C68.0029 32.0525 71.6022 32.1631 72.2564 32.0289C72.9406 31.2885 71.3729 29.5806 70.8381 29.1109C69.4014 27.8489 67.4261 26.8139 65.4766 26.9096C65.3836 26.9142 65.2905 26.9215 65.1977 26.9312C63.9091 27.2979 63.1741 27.5083 62.0282 28.251C61.1929 28.7926 58.5362 31.089 59.8155 32.0078C60.7243 32.1763 65.8035 32.0507 67.0098 32.0483Z" fill="#F8B312"/>
</g>
</svg>
