<svg width="238" height="281" viewBox="0 0 238 281" fill="none" xmlns="http://www.w3.org/2000/svg">
<path d="M237.722 31.1303H-0.000213623V280.387H237.722V31.1303Z" fill="#FFC333"/>
<path d="M237.722 31.1303L205.649 0H14.1499L-0.000213623 31.1303H237.722Z" fill="url(#paint0_linear_2017_250)"/>
<path d="M237.722 31.1303H-0.000213623V280.387H237.722V31.1303Z" fill="url(#paint1_linear_2017_250)"/>
<path d="M123.393 89.1172C124.734 89.1172 126 89.5633 127.02 90.4863L127.221 90.6768L136.354 99.8105C137.376 100.832 137.959 102.151 137.959 103.639V113.229C137.959 114.225 137.719 115.456 136.809 116.455L132.023 121.999V122.77L136.792 128.297C137.715 129.299 137.959 130.538 137.959 131.541V141.086C137.959 142.544 137.416 143.882 136.353 144.913L136.354 144.914L127.221 154.047L127.22 154.046C126.189 155.109 124.851 155.652 123.393 155.652H100.742C99.9249 155.652 98.7924 155.446 97.8843 154.538C96.9761 153.63 96.77 152.497 96.77 151.681V138.482C96.7701 137.666 96.9762 136.533 97.8843 135.625C98.7924 134.717 99.9249 134.511 100.742 134.511H114.809V132.362H104.532C103.715 132.362 102.583 132.156 101.675 131.248C100.767 130.34 100.56 129.207 100.56 128.391V116.06C100.56 115.243 100.767 114.11 101.675 113.202C102.583 112.294 103.715 112.088 104.532 112.088H114.809V110.578H100.742C99.9249 110.578 98.7924 110.372 97.8843 109.464C96.9762 108.556 96.77 107.423 96.77 106.606V93.0889C96.77 92.2721 96.9761 91.1396 97.8843 90.2314C98.7924 89.3233 99.9249 89.1172 100.742 89.1172H123.393Z" fill="#FDB300" stroke="black" stroke-width="5.66006"/>
<defs>
<linearGradient id="paint0_linear_2017_250" x1="118.861" y1="-0.785398" x2="118.861" y2="22.7765" gradientUnits="userSpaceOnUse">
<stop stop-color="#FFC333"/>
<stop offset="1" stop-color="#FFE199"/>
</linearGradient>
<linearGradient id="paint1_linear_2017_250" x1="237.722" y1="183.952" x2="-0.000213623" y2="183.952" gradientUnits="userSpaceOnUse">
<stop stop-color="#FFF0CC"/>
<stop offset="0.0625" stop-color="#FFC333" stop-opacity="0"/>
<stop offset="0.94" stop-color="#FFC333" stop-opacity="0"/>
<stop offset="1" stop-color="#FFE199"/>
</linearGradient>
</defs>
</svg>
